<svg id="Artwork_28" data-name="Artwork 28" xmlns="http://www.w3.org/2000/svg" xmlns:xlink="http://www.w3.org/1999/xlink" width="639.353" height="390.736" viewBox="0 0 639.353 390.736">
  <defs>
    <clipPath id="clip-path">
      <rect id="Rectangle_19" data-name="Rectangle 19" width="639.353" height="390.737" fill="none"/>
    </clipPath>
  </defs>
  <g id="Artwork_28-2" data-name="Artwork 28" transform="translate(0 0)">
    <text id="M" transform="translate(18.698 317.453)" fill="#fff" font-size="73" font-family="AncientGeek, Ancient Geek"><tspan x="0" y="0">M</tspan></text>
    <text id="E" transform="translate(109.204 320.24)" fill="#fff" font-size="78" font-family="BodoniSvtyTwoITCTT-Book, 'Bodoni 72'"><tspan x="0" y="0">E</tspan></text>
    <text id="R" transform="translate(175.904 317.453)" fill="#fff" font-size="73" font-family="AncientGeek, Ancient Geek"><tspan x="0" y="0">R</tspan></text>
    <text id="C" transform="translate(236.084 317.453)" fill="#fff" font-size="73" font-family="AncientGeek, Ancient Geek"><tspan x="0" y="0">C</tspan></text>
    <text id="U" transform="translate(308.206 320.026)" fill="#fff" font-size="77" font-family="BodoniSvtyTwoITCTT-Book, 'Bodoni 72'"><tspan x="0" y="0">U</tspan></text>
    <text id="RI" transform="translate(378.285 317.453)" fill="#fff" font-size="73" font-family="AncientGeek, Ancient Geek"><tspan x="0" y="0" letter-spacing="0.07em">R</tspan><tspan y="0">I</tspan></text>
    <text id="A" transform="translate(487.193 318.444)" fill="#fff" font-size="80" font-family="Palatino-Roman, Palatino"><tspan x="0" y="0">A</tspan></text>
    <text id="L" transform="translate(569.449 317.453)" fill="#fff" font-size="73" font-family="AncientGeek, Ancient Geek"><tspan x="0" y="0">L</tspan></text>
    <g id="Group_28" data-name="Group 28" clip-path="url(#clip-path)">
      <path id="Path_13" data-name="Path 13" d="M620.572,230.432c-.55-4.95-2.278-6.835-7.071-7.228-6.128-.471-12.256-.864-18.384-1.1s-12.02-.314-18.07-.393l-22-.393c-2.828-.079-3.221-.471-2.985-3.3a6.99,6.99,0,0,1,.157-.943,59.316,59.316,0,0,0,.864-20.191c-.864-6.914-3.535-12.806-9.035-17.205a60.964,60.964,0,0,0-15.477-8.878c-2.435-.943-4.871-2.121-7.306-3.221,1.807-3.3,1.414-4.242-1.964-5.185l-9.9-2.593c-2.671-.707-4.949-.55-7.071,1.493s-4.085.314-4.085-.864c.079-2.671-1.728-3.614-3.771-4.085s-5.735-1.178-8.563-1.886a10.909,10.909,0,0,0-9.742,2.828,3.692,3.692,0,0,1-2.357.943l-35.747-.707c-1.886,0-2.514-.707-2.907-2.435a65.428,65.428,0,0,0-11.627-26.4c-3.378-4.478-6.914-8.8-10.213-13.277a49.888,49.888,0,0,0-29.933-19.641c-8.8-1.964-17.755-3.535-26.712-4.95-5.657-.864-11.47-1.178-17.205-1.571s-11.627-.629-17.52-.786l-27.026-.786c-11.942-.393-23.883.943-35.747-.314l-5.892-.629a30.794,30.794,0,0,1,5.578-2.907L298.3,66.47,330.75,51.935c2.357-1.1,4.714-2.278,6.992-3.535s2.593-2.278,1.807-4.085c-1.728-4.164-10.606-16.341-11.863-18.384s-3.771-6.285-5.5-9.506c-.864-1.493-12.649-17.52-15.4-16.341L282.748,9.825c-2.593,1.1-46.431,21.762-67.251,31.818a39.36,39.36,0,0,1-16.891,3.928c-42.11.157-84.22,4.714-124.681,15.948-9.035,2.514-18.148,5.342-26.083,10.37A18.855,18.855,0,0,0,56.8,77L10.445,91.689a3.064,3.064,0,0,0-1.414.943c-1.257,1.414-.236,2.907.864,3.85,5.107,4.478,12.649,4.478,19.405,3.85C51.22,98.445,72.825,93.81,94.352,89.175q-35.118,10.842-69.608,23.333c-8.328,2.985-16.813,6.128-23.883,11.47A2.121,2.121,0,0,0,0,125.392c-.157,1.336,1.1,1.964,2.2,2.278,20.348,5.892,41.953-.236,62.223-6.442l56.8-17.284a3.693,3.693,0,0,1,3.771.864c2.435,2.514-1.336,6.049-4.478,7.385q-51.381,21.919-101.19,47.3c-2.593,1.336-5.5,4.871-3.064,6.521a2.986,2.986,0,0,0,1.728.471A161.292,161.292,0,0,0,75.81,154.775l1.414,3.693,37.868-19.405c6.442-3.3,14.534-6.6,20.584-2.593L46.428,195.786a6.442,6.442,0,0,0-2.75,3.771c-2.2,8.8,20.505,3.221,24.041,2.278,9.82-2.828,19.091-7.464,27.89-12.649,14.534-8.563,28.519-18.541,44.467-24.041q-31.19,28.44-61.83,57.43a5.264,5.264,0,0,0-1.728,4.164c.314,4.792,6.678,4.557,10.92,3.064s8.721-3.143,13.042-4.871a119.58,119.58,0,0,0,15.713-7.306,72.593,72.593,0,0,0,20.034-17.048l3.378.707L119.728,221.24c-4.792,4.792-6.442,14.456,3.221,13.356,4.4-.55,7.856-2.75,11.392-5.185a12.648,12.648,0,0,0,.629,3.378c3.85-.786,7.228-4.321,11.078-3.378,1.886.471,3.378,1.964,5.028,3.064,4.871,3.3,9.978,2.043,15.32,1.257s12.806.079,19.405.55v.628c.079,2.043.157,4.007.393,6.049v.55c.628,4.557,1.886,5.5,6.442,5.971s8.092.707,12.1.786c8.171,0,16.263-.157,24.433-.314l15.634-.236,33.232-.471,29.7-.471a17.171,17.171,0,0,0,9.585-2.671,9.585,9.585,0,0,1,5.578-1.964c7.306-.236,14.613-.786,21.919-.943s14.063.157,21.055.314l14.691.314,28.519.707,35.039.707c12.1.157,24.2.393,36.3.393s25.612-.157,38.418-.314L546.958,243c3.771-.079,7.464,0,11.156-.157,11-.55,22-1.1,32.918-1.807,7.7-.55,15.32-1.257,23.019-2.2,5.185-.629,7.071-3.3,6.521-8.485M255.8,117.693c15.477-1.886,30.876-4.4,46.353-6.364,9.113-1.1,18.305-1.886,27.5-2.357,11.863-.629,23.726-1.021,35.589-1.1s23.176,2.121,33.468,8.171c4.557,2.671,8.956,5.892,13.277,8.878a4.4,4.4,0,0,1,1.493,2.043,90.009,90.009,0,0,1,4.792,25.769c0,2.828-.079,2.907-2.985,2.593-24.512-2.2-48.71-6.6-72.986-10.763-16.263-2.828-32.525-5.264-48.788-7.856-11.627-1.807-23.333-3.535-35.039-5.185l-24.2-3.378-12.413-1.493a2.291,2.291,0,0,1-1.257-1.178,3.693,3.693,0,0,1-.157-1.65c.079-2.907.55-3.143,3.378-3.378,10.685-.864,21.291-1.493,31.9-2.828m105.9,104.411-18.855-.236h-1.336l-33.547-.393-32.054-.786c-8.642-.236-17.284-.55-25.926-.707l-31.583-.314H213.69c-13.356-1.1-23.255-13.12-26-25.769a29.619,29.619,0,0,1-.079-6.835c.157-1.336.314-2.671.55-4.085a48.709,48.709,0,0,1,13.356-25.533c2.2-2.278,4.321-4.557,6.521-6.914a2.75,2.75,0,0,1,3.535-.786l3.693,1.571,16.891,7.071,22.783,9.82c.943.393,63.4,26.869,80.057,36.846,8.956,5.342,17.755,11,26.633,16.5l.864.393-.943.471m56.095-35.747c0,.471-.157,1.021-.157,1.493-.157,9.978-.314,20.034-.393,30.011,0,2.121.236,4.242.314,6.364s-.236,1.493-1.493,1.414l-20.27-.864a8.642,8.642,0,0,1-5.185-2.121c-6.914-5.421-13.749-10.92-20.977-15.713-9.428-6.285-19.248-12.177-29.069-17.913s-19.8-11.156-29.854-16.42c-6.364-3.378-13.042-6.128-19.562-9.271a11.908,11.908,0,0,1-2.75-2.514c-.864-.864-2.75-1.257-4.4-4.321l-2.671-2.828h2.2l26,3.928c14.456,2.2,28.833,4.4,43.289,6.442s28.2,3.928,42.267,5.814c7.149.943,14.377,1.65,21.605,2.357,1.178.157,1.728.55,1.65,1.728-.157,4.164-.393,8.328-.55,12.492m49.1-10.842c-4.871,13.984-9.742,27.89-14.613,41.874a65.182,65.182,0,0,0-1.728,6.442,1.886,1.886,0,0,1-2.121,1.65l-10.213.314c-1.336.079-2.043-.393-2.121-1.728-.157-3.064-.471-6.207-.55-9.271-.079-5.264-.157-10.606,0-15.87.236-8.485.707-16.97,1.021-25.455.079-1.414.786-1.65,1.886-1.65h12.335l14.534.314,2.435.157c-.393,1.257-.629,2.278-.943,3.221m27.5-.943a11.777,11.777,0,0,1-1.021,2.357c-1.493,3.614-3.221,7.149-4.478,10.763-2.121,6.442-4.085,12.884-5.971,19.405s-3.064,11.392-4.714,17.048a2.435,2.435,0,0,1-1.571,1.571c-2.2.157-4.4.079-6.914.079a14.351,14.351,0,0,1,.314-1.571c3.457-10.213,6.678-20.427,10.37-30.483,2.121-5.657,4.95-11.078,7.464-16.656l.55-1.178c1.021-2.357,2.593-3.3,5.028-2.75a1.65,1.65,0,0,1,.864,1.414m25.14,4.164-6.992,32.054-2.121,9.428a3.046,3.046,0,0,1-3.378,2.75,60.2,60.2,0,0,0-6.992.707c-1.021.079-1.571-.393-1.257-1.65,3.143-12.177,6.757-24.119,12.02-35.589,1.414-2.985,2.828-5.971,4.007-9.035s2.357-1.257,3.693-1.021,1.178,1.336.943,2.357m23.412,19.877c-2.435,4.714-4.792,9.506-6.992,14.377-1.1,2.435-1.885,5.107-2.907,7.621-.236.471-.864.786-1.257,1.178a5.1,5.1,0,0,1-.314-1.65c1.807-9.742,3.614-19.484,5.578-29.226a80.965,80.965,0,0,1,2.828-9.113h.786c2.75,5.342,5.421,10.606,2.278,16.813" transform="translate(0.004 -0.005)" fill="#fff"/>
      <text id="HEALTH_AND_FITNESS_INN" data-name="HEALTH AND FITNESS INN" transform="translate(21.868 373.193)" fill="#fff" font-size="39" font-family="RealistWide-LightItalic, RealistWide" font-weight="300" font-style="italic"><tspan x="0" y="0" letter-spacing="0.07em">H</tspan><tspan y="0" letter-spacing="0.08em">E</tspan><tspan y="0" letter-spacing="0.07em">A</tspan><tspan y="0" letter-spacing="-0.07em">L</tspan><tspan y="0" letter-spacing="0.06em">T</tspan><tspan y="0" letter-spacing="0.08em">H </tspan><tspan y="0" letter-spacing="0.07em">AND FITNE</tspan><tspan y="0" letter-spacing="0.08em">SS </tspan><tspan y="0" letter-spacing="0.07em">IN</tspan><tspan y="0">N</tspan></text>
    </g>
  </g>
</svg>
