<svg xmlns="http://www.w3.org/2000/svg" xmlns:xlink="http://www.w3.org/1999/xlink" width="150" height="80" viewBox="0 0 346.333 217.876">
  <defs>
    <clipPath id="clip-path">
      <rect id="Rectangle_15" data-name="Rectangle 15" width="346.333" height="217.876" fill="none"/>
    </clipPath>
  </defs>
  <g id="Group_21" data-name="Group 21" transform="translate(-235.579 -296.115)">
    <g id="Artwork_28" data-name="Artwork 28" transform="translate(225.406 296.115)">
      <g id="Group_20" data-name="Group 20" transform="translate(0 0)">
        <text id="M" transform="translate(10.172 184.349)" fill="#ff9800" font-size="50" font-family="AncientGeek, Ancient Geek"><tspan x="0" y="0">M</tspan></text>
        <text id="E" transform="translate(61.017 182.809)" fill="#ff9800" font-size="46" font-family="BodoniSvtyTwoITCTT-Book, 'Bodoni 72'"><tspan x="0" y="0">E</tspan></text>
        <text id="R" transform="translate(98.286 184.349)" fill="#ff9800" font-size="49" font-family="AncientGeek, Ancient Geek"><tspan x="0" y="0">R</tspan></text>
        <text id="C" transform="translate(131.966 184.349)" fill="#ff9800" font-size="50" font-family="AncientGeek, Ancient Geek"><tspan x="0" y="0">C</tspan></text>
        <text id="U" transform="translate(172.266 183.237)" fill="#ff9800" font-size="46" font-family="BodoniSvtyTwoITCTT-Book, 'Bodoni 72'"><tspan x="0" y="0">U</tspan></text>
        <text id="RI" transform="translate(211.897 184.349)" fill="#ff9800" font-size="49" font-family="AncientGeek, Ancient Geek"><tspan x="0" y="0" letter-spacing="0.07em">R</tspan><tspan y="0">I</tspan></text>
        <text id="A" transform="translate(276.878 184.793)" fill="#ff9800" font-size="48" font-family="Palatino-Roman, Palatino"><tspan x="0" y="0">A</tspan></text>
        <text id="L" transform="translate(321.628 183.349)" fill="#ff9800" font-size="48" font-family="AncientGeek, Ancient Geek"><tspan x="0" y="0">L</tspan></text>
        <g id="Group_19" data-name="Group 19" transform="translate(10.172)" clip-path="url(#clip-path)">
          <path id="Path_10" data-name="Path 10" d="M336.152,128.5c-.3-2.76-1.234-3.811-3.83-4.03-3.319-.263-6.639-.482-9.958-.613s-6.511-.175-9.788-.219l-11.916-.219c-1.532-.044-1.745-.263-1.617-1.84a4.006,4.006,0,0,1,.085-.526,34.027,34.027,0,0,0,.468-11.259A13.993,13.993,0,0,0,294.7,100.2a32.8,32.8,0,0,0-8.384-4.95c-1.319-.526-2.639-1.183-3.958-1.8.979-1.84.766-2.366-1.064-2.891l-5.362-1.446a3.572,3.572,0,0,0-3.83.832c-1.149,1.139-2.213.175-2.213-.482.043-1.489-.936-2.015-2.043-2.278s-3.107-.657-4.639-1.051a5.794,5.794,0,0,0-5.277,1.577,1.97,1.97,0,0,1-1.277.526l-19.364-.394c-1.021,0-1.362-.394-1.575-1.358a37.023,37.023,0,0,0-6.3-14.719c-1.83-2.5-3.745-4.906-5.532-7.4a26.982,26.982,0,0,0-16.214-10.952c-4.766-1.1-9.618-1.971-14.47-2.76-3.064-.482-6.213-.657-9.32-.876s-6.3-.35-9.49-.438l-14.64-.438c-6.469-.219-12.937.526-19.364-.175l-3.192-.35a16.517,16.517,0,0,1,3.022-1.621l21.364-9.681,17.576-8.1c1.277-.613,2.553-1.27,3.788-1.971s1.4-1.27.979-2.278c-.936-2.322-5.745-9.112-6.426-10.251s-2.043-3.5-2.979-5.3c-.468-.832-6.852-9.769-8.341-9.112L153.154,5.488C151.75,6.1,128,17.623,116.725,23.23a20.821,20.821,0,0,1-9.15,2.19c-22.811.088-45.622,2.628-67.539,8.893-4.894,1.4-9.831,2.979-14.129,5.783a10.146,10.146,0,0,0,4.852,2.847L5.65,51.135a1.658,1.658,0,0,0-.766.526c-.681.789-.128,1.621.468,2.147,2.766,2.5,6.852,2.5,10.512,2.147C27.738,54.9,39.441,52.318,51.1,49.733Q32.079,55.779,13.4,62.744C8.885,64.409,4.289,66.161.458,69.14a1.188,1.188,0,0,0-.468.789c-.085.745.6,1.1,1.192,1.27,11.022,3.286,22.726-.131,33.706-3.592l30.769-9.638a1.96,1.96,0,0,1,2.043.482c1.319,1.4-.723,3.373-2.426,4.118Q37.441,74.791,10.459,88.941c-1.4.745-2.979,2.716-1.66,3.636a1.583,1.583,0,0,0,.936.263,85.216,85.216,0,0,0,31.322-6.527l.766,2.059,20.513-10.82c3.49-1.84,7.873-3.68,11.15-1.446L25.142,109.18a3.588,3.588,0,0,0-1.49,2.1c-1.192,4.906,11.107,1.8,13.023,1.27A65.3,65.3,0,0,0,51.783,105.5C59.656,100.725,67.231,95.162,75.87,92.1q-16.9,15.858-33.493,32.023a2.978,2.978,0,0,0-.936,2.322c.17,2.672,3.617,2.541,5.915,1.708s4.724-1.752,7.065-2.716a63.93,63.93,0,0,0,8.511-4.074,39.647,39.647,0,0,0,10.852-9.506l1.83.394L64.848,123.374c-2.6,2.672-3.49,8.061,1.745,7.447a13.668,13.668,0,0,0,6.171-2.891,7.237,7.237,0,0,0,.34,1.884c2.085-.438,3.915-2.409,6-1.884a9.513,9.513,0,0,1,2.724,1.708c2.639,1.84,5.4,1.139,8.3.7s6.937.044,10.512.307V131c.043,1.139.085,2.234.213,3.373v.307c.34,2.541,1.021,3.067,3.49,3.329s4.383.394,6.554.438c4.426,0,8.809-.088,13.235-.175l8.469-.131,18-.263,16.087-.263a9.1,9.1,0,0,0,5.192-1.489,5.1,5.1,0,0,1,3.022-1.1c3.958-.131,7.916-.438,11.874-.526s7.618.088,11.405.175l7.958.175,15.448.394,18.981.394c6.554.088,13.108.219,19.662.219s13.874-.088,20.811-.175l15.236-.175c2.043-.044,4.043,0,6.043-.088,5.958-.307,11.916-.613,17.832-1.008,4.171-.307,8.3-.7,12.469-1.227,2.809-.35,3.83-1.84,3.532-4.731M138.557,65.635c8.384-1.051,16.725-2.453,25.109-3.548,4.937-.613,9.916-1.051,14.9-1.314,6.426-.35,12.852-.57,19.279-.613a33.738,33.738,0,0,1,18.129,4.556c2.468,1.489,4.852,3.286,7.192,4.95a2.451,2.451,0,0,1,.809,1.139,51.5,51.5,0,0,1,2.6,14.369c0,1.577-.043,1.621-1.617,1.446-13.278-1.227-26.386-3.68-39.536-6-8.809-1.577-17.619-2.935-26.428-4.381-6.3-1.008-12.64-1.971-18.981-2.891L126.9,71.462l-6.724-.832c-.255-.044-.553-.394-.681-.657a2.116,2.116,0,0,1-.085-.92c.043-1.621.3-1.752,1.83-1.884,5.788-.482,11.533-.832,17.278-1.577m57.367,58.22-10.214-.131h-.723l-18.172-.219-17.363-.438c-4.681-.131-9.363-.307-14.044-.394l-17.108-.175h-2.511c-7.235-.613-12.6-7.316-14.087-14.369a17,17,0,0,1-.043-3.811c.085-.745.17-1.489.3-2.278a27.433,27.433,0,0,1,7.235-14.237c1.192-1.27,2.341-2.541,3.532-3.855a1.463,1.463,0,0,1,1.915-.438l2,.876,9.15,3.943,12.342,5.476c.511.219,34.344,14.982,43.366,20.546,4.852,2.979,9.618,6.133,14.427,9.2l.468.219-.511.263m30.386-19.932c0,.263-.085.57-.085.832-.085,5.564-.17,11.171-.213,16.734,0,1.183.128,2.366.17,3.548s-.128.832-.809.789l-10.98-.482a4.611,4.611,0,0,1-2.809-1.183c-3.745-3.023-7.448-6.089-11.363-8.762-5.107-3.5-10.427-6.79-15.746-9.988s-10.724-6.221-16.172-9.156c-3.447-1.884-7.065-3.417-10.6-5.169a6.523,6.523,0,0,1-1.49-1.4c-.468-.482-1.49-.7-2.383-2.409L152.3,85.831h1.192l14.087,2.19c7.831,1.227,15.619,2.453,23.449,3.592s15.278,2.19,22.9,3.242c3.873.526,7.788.92,11.7,1.314.638.088.936.307.894.964-.085,2.322-.213,4.644-.3,6.965m26.6-6.045c-2.639,7.8-5.277,15.552-7.916,23.349-.383,1.183-.681,2.409-.936,3.592a1.059,1.059,0,0,1-.387.708,1,1,0,0,1-.762.212l-5.533.175c-.723.044-1.106-.219-1.149-.964-.085-1.708-.255-3.461-.3-5.169-.043-2.935-.085-5.914,0-8.849.128-4.731.383-9.462.553-14.194.043-.789.426-.92,1.021-.92H244.1l7.873.175,1.319.088c-.213.7-.34,1.27-.511,1.8m14.9-.526a6.675,6.675,0,0,1-.553,1.314c-.809,2.015-1.745,3.986-2.426,6-1.149,3.592-2.213,7.184-3.234,10.82s-1.66,6.352-2.553,9.506a1.339,1.339,0,0,1-.851.876c-1.192.088-2.383.044-3.745.044a8.246,8.246,0,0,1,.17-.876c1.873-5.695,3.617-11.39,5.618-17,1.149-3.154,2.681-6.177,4.043-9.287l.3-.657a2.155,2.155,0,0,1,2.724-1.533.924.924,0,0,1,.468.789m13.618,2.322-3.788,17.873-1.149,5.257a1.664,1.664,0,0,1-1.83,1.533,31.712,31.712,0,0,0-3.788.394c-.553.044-.851-.219-.681-.92a119.926,119.926,0,0,1,6.511-19.845c.766-1.665,1.532-3.329,2.17-5.038s1.277-.7,2-.57.638.745.511,1.314m12.682,11.083c-1.319,2.628-2.6,5.3-3.788,8.017-.6,1.358-1.021,2.847-1.575,4.249-.128.263-.468.438-.681.657a2.922,2.922,0,0,1-.17-.92c.979-5.432,1.958-10.864,3.022-16.3a46.131,46.131,0,0,1,1.532-5.082h.426c1.49,2.979,2.937,5.914,1.234,9.375" transform="translate(0.01 -0.012)" fill="#ff9800"/>
          <text id="HEALTH_AND_FITNESS_INN" data-name="HEALTH AND FITNESS INN" transform="translate(-2.579 212.885)" fill="#ff9800" font-size="23" font-family="RealistWide-LightItalic, RealistWide" font-weight="300" font-style="italic"><tspan x="0" y="0" letter-spacing="0.07em">H</tspan><tspan y="0" letter-spacing="0.08em">E</tspan><tspan y="0" letter-spacing="0.07em">A</tspan><tspan y="0" letter-spacing="-0.07em">L</tspan><tspan y="0" letter-spacing="0.06em">T</tspan><tspan y="0" letter-spacing="0.08em">H </tspan><tspan y="0" letter-spacing="0.07em">AND FITNE</tspan><tspan y="0" letter-spacing="0.08em">SS </tspan><tspan y="0" letter-spacing="0.07em">IN</tspan><tspan y="0">N</tspan></text>
        </g>
      </g>
    </g>
  </g>
</svg>
