<svg xmlns="http://www.w3.org/2000/svg" width="250" height="195" viewBox="0 0 798.726 485.882">
  <g id="Group_59" data-name="Group 59" transform="translate(-133.085 -426.379)">
    <g id="Group_57" data-name="Group 57">
      <path id="Path_18" data-name="Path 18" d="M158.046,849.047v-3.088q4.035,0,5.58-1.068a4.159,4.159,0,0,0,1.543-3.68V776.86q0-3.322-1.543-4.274t-5.58-.949v-3.088H174.43l31.107,49.866,30.631-49.866h18.284v3.088q-4.038,0-5.58.949t-1.543,4.274v64.351a4.154,4.154,0,0,0,1.543,3.68q1.542,1.07,5.58,1.068v3.088h-26.12v-3.088q4.036,0,5.58-1.068a4.157,4.157,0,0,0,1.544-3.68V779.947l-26.832,43.217-5.462,9.024L171.1,779.947v61.264a4.157,4.157,0,0,0,1.544,3.68q1.543,1.07,5.58,1.068v3.088Z" fill="#ff9800"/>
      <path id="Path_19" data-name="Path 19" d="M336.819,830.492q0,.462-.23,5.647t-.231,9.911v3.8q-11.295-.691-44.714-.692H277.238q-2.19,0-2.189-.928c0-.412.23-.654.691-.722q.347,0,4.379-.309,3-.231,3.631-1.271t.633-5.434V775.535q0-3.351-.979-3.988t-6.281-.637q-1.845,0-1.844-.978t2.535-.981h48.864a40.067,40.067,0,0,0,6.339-.461q.228,4.957,1.037,13.715l.461,4.955a8.078,8.078,0,0,1,.115,1.5c0,.77-.346,1.153-1.037,1.153q-1.269,0-1.844-2.9-2.19-10.438-7.145-13.223-3.69-2.085-19.361-2.087h-9.451v33.882h2.767q12.9,0,15.73-1.959t3.861-11.41q.23-2.419,1.267-2.42,1.268,0,1.269,2.075t-.231,6.108q-.232,4.035-.23,6.108,0,12.333.369,16.941c.061.768.092,1.423.092,1.959q0,1.5-1.263,1.5c-.537,0-.9-.326-1.09-.981s-.516-2.783-.974-6.4q-.918-6.8-5.621-8.412-2.067-.691-10.783-.692h-5.163v38.608q25.353,0,29.733-1.026,7.607-1.707,8.644-14.569.229-2.844,1.5-2.845Q336.817,828.072,336.819,830.492Z" fill="#ff9800"/>
      <path id="Path_20" data-name="Path 20" d="M358.173,849.047v-3.088q4.035,0,5.58-1.068a4.159,4.159,0,0,0,1.543-3.68V776.86q0-3.322-1.543-4.274t-5.58-.949v-3.088h26.119q12.111,0,19.947,4.156t7.836,17.453q0,12.109-6.174,16.978-5.877,4.631-10.092,4.63h-.356L413.5,841.211a28.677,28.677,0,0,0,4.155,3.56q1.781,1.19,5.58,1.188v3.088H395.453v-3.088a9.9,9.9,0,0,0,5.224-1.068,1.835,1.835,0,0,0,.89-1.6,4.452,4.452,0,0,0-.652-2.077L383.58,811.766h-6.411v29.445a4.156,4.156,0,0,0,1.543,3.68q1.543,1.07,5.58,1.068v3.088Zm19-43.217h10.448q6.887,0,9.617-3.8t2.73-13.3q0-8.782-3.443-11.515t-11.516-2.731h-7.836Z" fill="#ff9800"/>
      <path id="Path_21" data-name="Path 21" d="M439.477,808.916q0-16.146,7.836-27.662t23.033-12.705q2.2-.117,4.215-.118a50.187,50.187,0,0,1,9.439.831q6.054,1.189,8.192,2.849a4.453,4.453,0,0,0,2.078.713,1.208,1.208,0,0,0,.89-.357,3.781,3.781,0,0,0,.653-2.612c0-.394-.021-.831-.06-1.306h3.8l5.936,20.9h-3.562Q494.8,779,487.562,776.029a29.462,29.462,0,0,0-11.339-2.018,48.36,48.36,0,0,0-6.59.475q-9.5,1.9-14.6,14.84a50.924,50.924,0,0,0-3.977,18.522,35.27,35.27,0,0,0,.3,4.631q1.186,13.535,6.173,21.608t16.385,9.022q11.16-.473,18.165-5.461t9.854-15.2h3.562q-2.85,13.536-11.516,20.066t-23.627,6.53q-13.061,0-21.965-10.33T439.477,808.916Z" fill="#ff9800"/>
      <path id="Path_22" data-name="Path 22" d="M600.443,770.807q0,.919-2.056.919H594.5q-2.856,0-3.426,1.483a10.5,10.5,0,0,0-.228,2.623V818.6q0,16.648-6.225,24.233t-20.044,7.585q-16.562,0-23.3-9.365-4.455-6.281-4.454-20.673v-45.8a3.031,3.031,0,0,0-2.777-2.513q-.7-.113-4.279-.114-1.968-.227-1.967-1.141,0-1.029,1.6-1.029h25.7q1.941,0,1.941,1.255a.8.8,0,0,1-.686.912q-.685.114-4.568.229a6.828,6.828,0,0,0-2.17.227,1.826,1.826,0,0,0-1.256,1.6q-.115.457-.114,6.5V821.33q0,15.055,4.8,20.529t14.276,5.474q17.359,0,19.644-19.7.342-2.961.343-25.054V775.364a2.846,2.846,0,0,0-2.371-3.075,25.5,25.5,0,0,0-4.625-.228q-2.256,0-2.255-1.252,0-1.023,1.6-1.025h18.16Q600.441,769.784,600.443,770.807Z" fill="#ff9800"/>
      <path id="Path_23" data-name="Path 23" d="M615.791,849.047v-3.088q4.035,0,5.58-1.068a4.159,4.159,0,0,0,1.544-3.68V776.86q0-3.322-1.544-4.274t-5.58-.949v-3.088h26.12q12.109,0,19.946,4.156t7.836,17.453q0,12.109-6.173,16.978-5.877,4.631-10.092,4.63h-.357l18.047,29.445a28.679,28.679,0,0,0,4.155,3.56q1.782,1.19,5.581,1.188v3.088H653.071v-3.088a9.9,9.9,0,0,0,5.224-1.068,1.836,1.836,0,0,0,.891-1.6,4.455,4.455,0,0,0-.653-2.077L641.2,811.766h-6.411v29.445a4.154,4.154,0,0,0,1.544,3.68q1.542,1.07,5.58,1.068v3.088Zm19-43.217h10.448q6.887,0,9.618-3.8t2.73-13.3q0-8.782-3.443-11.515t-11.517-2.731h-7.836Z" fill="#ff9800"/>
      <path id="Path_24" data-name="Path 24" d="M707.78,849.047v-3.088q4.038,0,5.581-1.068a4.156,4.156,0,0,0,1.543-3.68v-9.974q-8.548-.235-14.96-7.124a22.1,22.1,0,0,1-6.411-15.433A23.743,23.743,0,0,1,714.9,786.358v-9.5q0-3.322-1.543-4.274t-5.581-.949v-3.088H733.9v3.088q-4.037,0-5.58.949t-1.543,4.274v9.5h.594q8.191,0,14.365,6.531a22.234,22.234,0,0,1,6.411,15.791,23.311,23.311,0,0,1-6.411,15.2,20.981,20.981,0,0,1-14.959,7.36v9.974a4.156,4.156,0,0,0,1.543,3.68q1.545,1.07,5.58,1.068v3.088ZM714.9,825.3V792.295a10.749,10.749,0,0,0-7.361,6.174,26.252,26.252,0,0,0-.237,20.183Q709.205,822.927,714.9,825.3Zm11.873-33.006V825.3a16.639,16.639,0,0,0,7.361-6.293,17.7,17.7,0,0,0,2.137-9.2V808.68a28.173,28.173,0,0,0-1.9-10.33Q732.474,793.482,726.777,792.295Z" fill="#ff9800"/>
      <path id="Path_25" data-name="Path 25" d="M762.551,849.047v-3.81a29.611,29.611,0,0,0,5.517-.364,4.859,4.859,0,0,0,2.017-1.176,18.06,18.06,0,0,0,2.661-4.509q1.01-2.073,7.282-15.743l14.005-31.594q2.3-5.211,9.8-23.193h3.642L831.4,824.846q5.826,13.669,7.731,17.142a5.788,5.788,0,0,0,2.325,2.576q1.26.619,5.686.673v3.81q-8.741-.559-12.212-.561l-18.038.561v-3.81a62,62,0,0,0,7.618-.392,3.376,3.376,0,0,0,1.821-.812,1.9,1.9,0,0,0,.476-1.316,9.119,9.119,0,0,0-.784-3.194l-6.891-17.142H786.7l-6.106,14.4a16.866,16.866,0,0,0-1.624,5.658,1.866,1.866,0,0,0,.447,1.289,3.32,3.32,0,0,0,1.905,1.007,41.753,41.753,0,0,0,7.283.505v3.81q-9.468-.5-14.173-.505Q768.993,848.542,762.551,849.047ZM788.6,817.619h28.29L802.885,783.84Z" fill="#ff9800"/>
      <path id="Path_26" data-name="Path 26" d="M866.505,849.047v-3.088q4.035,0,5.58-1.068a4.159,4.159,0,0,0,1.543-3.68V776.86q0-3.322-1.543-4.274t-5.58-.949v-3.088h26.119v3.088q-4.037,0-5.58.949T885.5,776.86v66.249h25.17q6.411,0,10.329-3.442a19.069,19.069,0,0,0,5.58-9.854h3.8l-4.512,19.234Z" fill="#ff9800"/>
    </g>
    <path id="Path_27" data-name="Path 27" d="M923.022,719.657c-.679-6.333-2.893-8.728-9.036-9.194-7.8-.593-15.612-1.083-23.427-1.4-7.668-.309-15.341-.361-23.014-.508q-14-.257-28.007-.48c-3.559-.053-4.1-.618-3.772-4.2a8.861,8.861,0,0,1,.185-1.173,75.552,75.552,0,0,0,1.135-25.675c-1.092-8.765-4.5-16.315-11.521-21.883a77.6,77.6,0,0,0-19.7-11.3c-3.126-1.24-6.162-2.694-9.255-4.058,2.276-4.185,1.824-5.4-2.542-6.637-4.19-1.183-8.442-2.128-12.638-3.283-3.354-.926-6.333-.741-9,1.858-1.339,1.307-5.207.4-5.173-1.069.085-3.416-2.2-4.556-4.813-5.24-3.592-.941-7.283-1.511-10.88-2.428-4.86-1.235-8.842.1-12.357,3.554a4.663,4.663,0,0,1-3.036,1.206c-15.184-.256-30.364-.679-45.548-.9-2.4-.033-3.245-.884-3.724-3.145-2.576-12.229-7.212-23.594-14.8-33.623-4.295-5.677-8.765-11.222-13-16.942a63.477,63.477,0,0,0-38.056-24.966c-11.245-2.537-22.638-4.519-34.04-6.291-7.246-1.121-14.619-1.534-21.95-2.028-7.416-.5-14.847-.78-22.272-1.022-11.455-.37-22.914-.575-34.364-.955-15.17-.5-30.354,1.2-45.51-.446-2.508-.271-5.017-.523-7.521-.784a39.253,39.253,0,0,1,7.07-3.711q25.084-11.046,50.165-22.092,20.732-9.158,41.434-18.391c3.031-1.354,6.005-2.865,8.908-4.48,2.751-1.535,3.264-2.9,2.314-5.16-2.238-5.325-13.526-20.856-15.123-23.422q-3.691-5.943-7.046-12.091c-1.059-1.939-16-22.263-19.54-20.838-10.2,4.1-20.391,8.219-30.54,12.452-3.269,1.363-59.051,27.7-85.616,40.476a50.083,50.083,0,0,1-21.47,4.951c-53.59.246-107.171,6.04-158.75,20.318-11.525,3.191-23.083,6.867-33.192,13.256a23.991,23.991,0,0,0,11.4,6.46l-59.008,18.653a3.942,3.942,0,0,0-1.83,1.166c-1.561,1.834-.269,3.669,1.1,4.885,6.476,5.739,16.112,5.654,24.733,4.912,27.912-2.4,55.39-8.3,82.78-14.181q-44.65,13.788-88.6,29.729c-10.615,3.85-21.349,7.874-30.384,14.678a2.712,2.712,0,0,0-1.083,1.773c-.235,1.736,1.417,2.46,2.823,2.871,25.852,7.549,53.411-.326,79.177-8.165l72.281-21.992a4.737,4.737,0,0,1,4.774,1.136c3.094,3.18-1.661,7.68-5.655,9.379q-65.442,27.842-128.848,60.175c-3.311,1.689-6.97,6.166-3.854,8.308a3.822,3.822,0,0,0,2.231.634,205.265,205.265,0,0,0,73.611-14.893l1.831,4.746,48.179-24.726c8.222-4.22,18.464-8.377,26.161-3.262L192.157,675.6a8.16,8.16,0,0,0-3.458,4.768c-2.8,11.213,26.122,4.133,30.55,2.866,12.542-3.587,24.284-9.545,35.5-16.123,18.54-10.877,36.3-23.583,56.633-30.56q-39.72,36.179-78.724,73.129a6.713,6.713,0,0,0-2.161,5.257c.4,6.1,8.549,5.811,13.86,3.942q8.373-2.946,16.621-6.231a152.272,152.272,0,0,0,19.97-9.293,92.413,92.413,0,0,0,25.477-21.741l4.271.939-25.273,25.355c-6.129,6.148-8.193,18.423,4.061,16.955,5.624-.674,10-3.5,14.507-6.559a16.024,16.024,0,0,0,.77,4.3c4.9-1,9.221-5.514,14.087-4.35,2.448.586,4.306,2.51,6.383,3.932,6.151,4.21,12.742,2.627,19.533,1.567,7.674-1.2,16.267.115,24.7.667.006.283.01.566.018.848.076,2.571.238,5.136.542,7.678.028.252.057.5.09.746.756,5.787,2.39,7.008,8.2,7.583,5.112.5,10.253.94,15.384.959,10.367.048,20.733-.209,31.1-.351q9.971-.137,19.94-.3,21.129-.313,42.255-.627c12.585-.185,25.166-.333,37.751-.551,4.333-.071,8.633-.86,12.186-3.373a12.182,12.182,0,0,1,7.094-2.495c9.321-.289,18.628-1.016,27.95-1.168,8.927-.148,17.859.194,26.786.361,6.247.114,12.495.285,18.737.446,12.1.314,24.2.67,36.3.946,14.861.342,29.722.679,44.583.912,15.412.242,30.829.475,46.246.5,16.286.019,32.578-.2,48.869-.352,11.944-.1,23.888-.261,35.832-.4,4.751-.057,9.506,0,14.248-.232,13.972-.694,27.95-1.364,41.9-2.324,9.773-.67,19.532-1.624,29.262-2.779C921.34,729.657,923.73,726.237,923.022,719.657ZM458.671,576.168c19.707-2.4,39.305-5.635,59-8.087,11.6-1.444,23.289-2.375,34.967-2.978,15.079-.78,30.183-1.288,45.281-1.378,14.99-.09,29.475,2.732,42.583,10.442,5.844,3.435,11.35,7.455,16.937,11.308a5.627,5.627,0,0,1,1.915,2.622c3.763,10.6,5.464,21.6,6.143,32.782.048,3.582-.123,3.673-3.8,3.349-31.233-2.76-62.038-8.4-92.9-13.73-20.652-3.568-41.381-6.722-62.09-9.953-14.847-2.314-29.718-4.48-44.588-6.642-10.243-1.492-20.505-2.889-30.767-4.262-5.246-.7-10.519-1.211-15.759-1.933-.618-.086-1.3-.9-1.63-1.54a4.662,4.662,0,0,1-.2-2.1c.071-3.654.7-4.048,4.271-4.333C431.605,578.652,445.188,577.811,458.671,576.168ZM593.428,708.957q-11.98-.127-23.959-.294c-.551-.005-1.1-.1-1.658-.105-14.239-.18-28.478-.289-42.716-.546-13.6-.238-27.195-.608-40.792-.955-10.985-.285-21.969-.722-32.953-.9-13.417-.213-26.834-.318-40.25-.437-.333-.005-.666-.005-1-.009q-2.406-.023-4.8-.048c-.03,0-.057-.01-.087-.012-16.95-1.36-29.581-16.7-33.082-32.839a37.7,37.7,0,0,1-.115-8.7c.157-1.72.414-3.44.732-5.155a61.994,61.994,0,0,1,16.994-32.549c2.813-2.884,5.54-5.844,8.262-8.813a3.542,3.542,0,0,1,4.457-.969q2.365.99,4.736,1.981c7.179,2.984,14.377,5.929,21.537,8.951q14.537,6.137,29,12.457c1.221.537,80.743,34.231,101.871,46.9,11.393,6.827,22.581,14.006,33.865,21.018a9.779,9.779,0,0,0,1.135.475C593.822,708.782,593.627,708.962,593.428,708.957Zm71.393-45.5c-.029.632-.186,1.259-.2,1.886-.176,12.743-.366,25.48-.48,38.222-.019,2.684.266,5.369.409,8.053.071,1.354-.338,1.934-1.924,1.848-8.6-.461-17.213-.8-25.822-1.14a11.051,11.051,0,0,1-6.613-2.684c-8.78-6.856-17.47-13.883-26.729-20.045-12.049-8.015-24.463-15.5-36.972-22.781s-25.228-14.215-38.042-20.937c-8.114-4.257-16.6-7.8-24.852-11.811-1.363-.665-2.39-2.072-3.5-3.207-1.126-1.155-3.464-1.649-5.564-5.473-.983-1.064-1.962-2.129-3.363-3.644a23.439,23.439,0,0,1,2.755.014c11.018,1.668,22.03,3.378,33.053,5.036,18.376,2.765,36.744,5.578,55.14,8.214q26.888,3.856,53.823,7.379c9.146,1.2,18.334,2.062,27.508,3,1.5.152,2.157.726,2.091,2.2C665.3,652.882,665.068,658.169,664.821,663.457Zm62.456-13.811c-6.19,17.769-12.428,35.519-18.581,53.3-.931,2.685-1.563,5.474-2.233,8.239a2.427,2.427,0,0,1-2.651,2.128c-4.338.071-8.671.176-13,.375-1.682.076-2.556-.541-2.66-2.209-.238-3.943-.608-7.886-.675-11.83-.119-6.722-.214-13.455-.009-20.177.323-10.813.936-21.622,1.33-32.44.066-1.824,1.026-2.062,2.428-2.057,5.221.01,10.438-.033,15.659.024,6.162.071,12.329.223,18.491.351.917.019,1.834.1,3.093.176C728.013,647.119,727.709,648.4,727.277,649.646Zm35.048-1.24a14.989,14.989,0,0,1-1.307,3.027c-1.919,4.57-4.081,9.06-5.658,13.744-2.746,8.153-5.216,16.4-7.63,24.653-2.1,7.2-3.92,14.481-6,21.693a3.144,3.144,0,0,1-2.033,1.957c-2.8.228-5.63.091-8.766.091a18.528,18.528,0,0,1,.4-1.972c4.357-12.956,8.476-26.007,13.2-38.83,2.665-7.245,6.318-14.124,9.53-21.17.233-.5.513-.979.732-1.487,1.3-3.036,3.287-4.205,6.447-3.506A2.133,2.133,0,0,1,762.325,648.406Zm32.031,5.293q-4.44,20.375-8.86,40.763c-.875,4.015-1.815,8.015-2.685,12.03-.5,2.328-1.724,3.468-4.266,3.511-2.913.047-5.815.541-8.941.864-1.326.091-1.977-.47-1.554-2.123,3.962-15.489,8.609-30.744,15.346-45.291,1.757-3.8,3.591-7.574,5.093-11.474,1.1-2.86,2.955-1.573,4.665-1.254C795,651.067,794.641,652.4,794.356,653.7Zm29.817,25.337c-3.069,6.043-6.067,12.124-8.889,18.286-1.444,3.15-2.385,6.523-3.677,9.745-.252.636-1.079,1.035-1.639,1.548a6.454,6.454,0,0,1-.357-2.095c2.319-12.419,4.58-24.847,7.117-37.224.8-3.934,2.351-7.719,3.567-11.567l1.012-.082C824.8,664.4,828.191,671.128,824.173,679.036Z" fill="#ff9800"/>
    <g id="Group_58" data-name="Group 58">
      <path id="Path_28" data-name="Path 28" d="M192.563,911.634h-2.032l2.762-17.618h-28.3l-2.763,17.618h-2.033l5.682-35.966h2.033L165.3,892.191h28.3l2.606-16.523h2.033Z" fill="#ff9800"/>
      <path id="Path_29" data-name="Path 29" d="M236.919,877.492h-23.4l-2.293,14.7h21.267l-.209,1.825H210.909l-2.5,15.794h24.03l-.313,1.824h-26.01l5.681-35.966H237.18Z" fill="#ff9800"/>
      <path id="Path_30" data-name="Path 30" d="M274.082,911.634h-2.137l-4.118-13.5H249.219l-8.34,13.5h-2.241L261,875.668h2.137Zm-12.353-33.777h-.053l-11.415,18.557h17.045Z" fill="#ff9800"/>
      <path id="Path_31" data-name="Path 31" d="M285.913,909.81h24.081l-.313,1.824H283.619l5.682-35.966h2.032Z" fill="#ff9800"/>
      <path id="Path_32" data-name="Path 32" d="M347.992,877.492H331.26l-5.369,34.142h-2.033l5.369-34.142H312.6l.26-1.824H348.3Z" fill="#ff9800"/>
      <path id="Path_33" data-name="Path 33" d="M383.8,911.634h-2.033l2.763-17.618h-28.3l-2.763,17.618h-2.033l5.682-35.966h2.033l-2.606,16.523h28.3l2.606-16.523h2.033Z" fill="#ff9800"/>
      <path id="Path_34" data-name="Path 34" d="M445.981,911.634h-2.137l-4.118-13.5H421.118l-8.34,13.5h-2.241L432.9,875.668h2.137Zm-12.354-33.777h-.052L422.16,896.414H439.2Z" fill="#ff9800"/>
      <path id="Path_35" data-name="Path 35" d="M487.783,911.634H485.7l-22.883-33.046h-.052L457.5,911.634h-1.981l5.682-35.966h2.136l22.831,33.1h.1l5.265-33.1h1.981Z" fill="#ff9800"/>
      <path id="Path_36" data-name="Path 36" d="M514.156,911.634H501.437l5.682-35.966H520.2c12.927,0,19.964,4.535,19.964,14.8C540.166,904.754,529.845,911.634,514.156,911.634Zm6.046-34.142H508.839l-5.108,32.318H514.26c14.543,0,23.872-6.1,23.872-19.234C538.132,881.454,531.669,877.492,520.2,877.492Z" fill="#ff9800"/>
      <path id="Path_37" data-name="Path 37" d="M597.76,877.492H574.408l-2.554,16.264h21.372l-.314,1.771h-21.37l-2.5,16.107h-2.033l5.681-35.966h25.333Z" fill="#ff9800"/>
      <path id="Path_38" data-name="Path 38" d="M604.43,911.634H602.4l5.682-35.966h2.033Z" fill="#ff9800"/>
      <path id="Path_39" data-name="Path 39" d="M654.73,877.492H638l-5.369,34.142H630.6l5.368-34.142H619.338l.261-1.824h35.444Z" fill="#ff9800"/>
      <path id="Path_40" data-name="Path 40" d="M690.434,911.634h-2.085l-22.882-33.046h-.053l-5.265,33.046h-1.98l5.682-35.966h2.136l22.831,33.1h.1l5.265-33.1h1.98Z" fill="#ff9800"/>
      <path id="Path_41" data-name="Path 41" d="M734.9,877.492H711.49l-2.293,14.7h21.267l-.209,1.825h-21.37l-2.5,15.794h24.028l-.312,1.824h-26.01l5.682-35.966h25.383Z" fill="#ff9800"/>
      <path id="Path_42" data-name="Path 42" d="M767.939,879.838c-1.563-1.043-5.16-2.971-11.415-2.971-6.724,0-11.624,2.4-11.624,7.089,0,4.013,2.607,5.474,9.956,8.392,7.246,2.814,11.206,5.369,11.206,10.476,0,5.578-5.316,9.436-14.594,9.436-7.506,0-11.572-2.294-13.344-3.389l.782-1.877c1.668,1.148,5.526,3.389,12.51,3.389,8.131,0,12.614-2.919,12.614-7.4,0-4.117-3.128-6.044-10.164-8.86-7.3-2.972-10.946-5-10.946-10.008,0-5.733,5.629-9.069,13.709-9.069,6.775,0,10.424,1.928,12.092,2.918Z" fill="#ff9800"/>
      <path id="Path_43" data-name="Path 43" d="M803.9,879.838c-1.563-1.043-5.16-2.971-11.415-2.971-6.724,0-11.624,2.4-11.624,7.089,0,4.013,2.607,5.474,9.956,8.392,7.245,2.814,11.206,5.369,11.206,10.476,0,5.578-5.316,9.436-14.594,9.436-7.506,0-11.572-2.294-13.344-3.389l.782-1.877c1.668,1.148,5.526,3.389,12.51,3.389,8.132,0,12.614-2.919,12.614-7.4,0-4.117-3.128-6.044-10.164-8.86-7.3-2.972-10.946-5-10.946-10.008,0-5.733,5.629-9.069,13.708-9.069,6.776,0,10.426,1.928,12.094,2.918Z" fill="#ff9800"/>
      <path id="Path_44" data-name="Path 44" d="M833.611,911.634h-2.033l5.682-35.966h2.033Z" fill="#ff9800"/>
      <path id="Path_45" data-name="Path 45" d="M880.157,911.634h-2.085l-22.883-33.046h-.051l-5.265,33.046h-1.98l5.681-35.966h2.137l22.83,33.1h.1l5.264-33.1h1.981Z" fill="#ff9800"/>
      <path id="Path_46" data-name="Path 46" d="M926.077,911.634h-2.085l-22.883-33.046h-.051l-5.265,33.046h-1.981l5.682-35.966h2.137l22.83,33.1h.1l5.265-33.1h1.981Z" fill="#ff9800"/>
    </g>
  </g>
</svg>
