<svg id="Layer_1" data-name="Layer 1" xmlns="http://www.w3.org/2000/svg" viewBox="0 0 813.83 1482.54"><defs><style>.cls-1,.cls-2,.cls-9{fill:#ff9800;}.cls-2{font-size:121.58px;font-family:AncientGeek, Ancient Geek;letter-spacing:0.14em;}.cls-3{font-size:115.24px;letter-spacing:0.15em;}.cls-3,.cls-6{font-family:BodoniSvtyTwoITCTT-Book, "Bodoni 72";}.cls-4{letter-spacing:0.07em;}.cls-5{letter-spacing:0.12em;}.cls-6{font-size:114.21px;letter-spacing:0.12em;}.cls-7{font-size:114.73px;font-family:Palatino-Roman, Palatino;letter-spacing:0.14em;}.cls-8{letter-spacing:0.1em;}.cls-9{font-size:52.12px;font-family:RealistWide-LightItalic, RealistWide;font-weight:300;font-style:italic;letter-spacing:0.08em;}.cls-10{letter-spacing:0.08em;}.cls-11{letter-spacing:-0.07em;}.cls-12{letter-spacing:0.07em;}.cls-13{letter-spacing:0.05em;}.cls-14{letter-spacing:0.07em;}.cls-15{letter-spacing:0.07em;}</style></defs><path class="cls-1" d="M923-265.54c-.68-6.33-2.89-8.73-9-9.19-7.8-.6-15.62-1.09-23.43-1.4s-15.34-.36-23-.51q-14-.25-28-.48c-3.56-.05-4.1-.62-3.77-4.21a9.46,9.46,0,0,1,.18-1.17,75.83,75.83,0,0,0,1.14-25.67c-1.1-8.77-4.5-16.32-11.52-21.89a77.77,77.77,0,0,0-19.7-11.3c-3.13-1.24-6.16-2.69-9.26-4.06,2.28-4.18,1.83-5.4-2.54-6.63-4.19-1.19-8.44-2.13-12.64-3.29-3.35-.92-6.33-.74-9,1.86-1.34,1.31-5.21.4-5.17-1.07.08-3.41-2.2-4.55-4.82-5.24-3.59-.94-7.28-1.51-10.88-2.43-4.86-1.23-8.84.1-12.35,3.56a4.68,4.68,0,0,1-3,1.2c-15.18-.25-30.36-.68-45.55-.9-2.4,0-3.24-.88-3.72-3.14-2.58-12.23-7.21-23.6-14.8-33.63-4.3-5.67-8.77-11.22-13-16.94A63.46,63.46,0,0,0,621-437c-11.25-2.54-22.64-4.52-34-6.29-7.25-1.13-14.62-1.54-22-2s-14.85-.78-22.27-1c-11.46-.37-22.92-.57-34.37-.95-15.17-.5-30.35,1.2-45.51-.45-2.5-.27-5-.52-7.52-.78a39.39,39.39,0,0,1,7.07-3.71q25.1-11.06,50.17-22.09,20.73-9.17,41.43-18.39c3-1.36,6-2.87,8.91-4.48,2.75-1.54,3.26-2.9,2.31-5.16-2.23-5.33-13.52-20.86-15.12-23.43q-3.69-5.94-7-12.09c-1.06-1.94-16-22.26-19.55-20.84-10.19,4.1-20.39,8.22-30.53,12.46-3.27,1.36-59.06,27.7-85.62,40.47a50,50,0,0,1-21.47,4.95c-53.59.25-107.17,6-158.75,20.32-11.53,3.19-23.08,6.87-33.19,13.26a24,24,0,0,0,11.39,6.46l-59,18.65a3.86,3.86,0,0,0-1.83,1.17c-1.57,1.83-.27,3.67,1.1,4.88,6.48,5.74,16.11,5.66,24.73,4.91,27.91-2.4,55.39-8.29,82.78-14.18q-44.65,13.78-88.6,29.73c-10.61,3.85-21.35,7.88-30.38,14.68a2.68,2.68,0,0,0-1.08,1.77c-.24,1.74,1.41,2.46,2.82,2.87,25.85,7.55,53.41-.32,79.18-8.16l72.28-22a4.72,4.72,0,0,1,4.77,1.13c3.1,3.18-1.66,7.68-5.65,9.38q-65.44,27.84-128.85,60.18c-3.31,1.69-7,6.16-3.86,8.31a3.94,3.94,0,0,0,2.24.63,205.39,205.39,0,0,0,73.61-14.89l1.83,4.74,48.18-24.72c8.22-4.22,18.46-8.38,26.16-3.27L192.16-309.59a8.15,8.15,0,0,0-3.46,4.77c-2.8,11.21,26.12,4.13,30.55,2.86,12.54-3.58,24.28-9.54,35.49-16.12,18.54-10.88,36.31-23.58,56.64-30.56q-39.72,36.18-78.73,73.13a6.74,6.74,0,0,0-2.16,5.26c.4,6.1,8.55,5.81,13.86,3.94q8.37-3,16.62-6.23a151.57,151.57,0,0,0,20-9.3,92.14,92.14,0,0,0,25.48-21.74l4.27.94Q298.06-290,285.42-277.28c-6.13,6.14-8.19,18.42,4.06,16.95,5.62-.67,10-3.5,14.51-6.56a15.74,15.74,0,0,0,.77,4.3c4.9-1,9.22-5.52,14.08-4.35,2.45.58,4.31,2.51,6.39,3.93,6.15,4.21,12.74,2.63,19.53,1.57,7.67-1.2,16.27.11,24.7.66,0,.29,0,.57,0,.85.07,2.57.23,5.14.54,7.68,0,.25.05.5.09.75.75,5.78,2.39,7,8.2,7.58,5.11.5,10.25.94,15.38,1,10.37.05,20.74-.21,31.1-.35q10-.13,19.94-.3l42.26-.63c12.58-.18,25.16-.33,37.75-.55,4.33-.07,8.63-.86,12.18-3.37a12.21,12.21,0,0,1,7.1-2.49c9.32-.29,18.63-1,28-1.17,8.92-.15,17.86.19,26.78.36,6.25.11,12.5.28,18.74.45,12.1.31,24.2.66,36.3.94,14.86.34,29.72.68,44.58.91,15.41.25,30.83.48,46.25.5,16.28,0,32.58-.2,48.87-.35,11.94-.1,23.88-.26,35.83-.4,4.75-.06,9.51,0,14.25-.24,14-.69,27.95-1.36,41.9-2.32,9.77-.67,19.53-1.62,29.26-2.78C921.34-255.54,923.73-259,923-265.54ZM458.67-409c19.71-2.4,39.31-5.63,59-8.08,11.61-1.45,23.29-2.38,35-3,15.08-.78,30.18-1.29,45.28-1.38s29.48,2.73,42.59,10.44c5.84,3.44,11.35,7.46,16.93,11.31a5.57,5.57,0,0,1,1.92,2.62c3.76,10.6,5.46,21.6,6.14,32.78,0,3.59-.12,3.68-3.8,3.35-31.23-2.76-62-8.4-92.89-13.73-20.65-3.57-41.38-6.72-62.09-9.95-14.85-2.31-29.72-4.48-44.59-6.64-10.24-1.49-20.51-2.89-30.77-4.26-5.24-.7-10.52-1.22-15.76-1.94-.61-.08-1.3-.9-1.63-1.54a4.54,4.54,0,0,1-.19-2.1c.07-3.65.7-4.05,4.27-4.33C431.6-406.54,445.19-407.38,458.67-409ZM593.43-276.24q-12-.12-24-.29c-.55,0-1.1-.1-1.66-.11-14.24-.18-28.48-.29-42.72-.54-13.59-.24-27.19-.61-40.79-1-11-.28-22-.72-32.95-.9-13.42-.21-26.83-.32-40.25-.44h-1l-4.8-.05h-.09c-16.95-1.36-29.58-16.7-33.08-32.84a37.7,37.7,0,0,1-.12-8.69c.16-1.72.42-3.44.73-5.16a62,62,0,0,1,17-32.55c2.81-2.88,5.54-5.84,8.26-8.81a3.55,3.55,0,0,1,4.46-1l4.73,2c7.18,3,14.38,5.93,21.54,8.95q14.53,6.13,29,12.46c1.22.54,80.74,34.23,101.87,46.9,11.39,6.82,22.58,14,33.87,21a9.54,9.54,0,0,0,1.13.47C593.82-276.41,593.63-276.23,593.43-276.24Zm71.39-45.5c0,.63-.18,1.26-.19,1.89-.18,12.74-.37,25.48-.48,38.22,0,2.68.26,5.37.4,8.05.08,1.36-.33,1.94-1.92,1.85-8.6-.46-17.21-.8-25.82-1.14a11,11,0,0,1-6.61-2.68c-8.78-6.86-17.47-13.89-26.73-20.05-12.05-8-24.47-15.5-37-22.78s-25.22-14.21-38-20.94c-8.11-4.25-16.6-7.79-24.85-11.81-1.36-.66-2.39-2.07-3.5-3.2s-3.46-1.65-5.56-5.48l-3.37-3.64a23.79,23.79,0,0,1,2.76,0c11,1.67,22,3.38,33.05,5,18.38,2.76,36.74,5.58,55.14,8.21q26.89,3.85,53.82,7.38c9.15,1.2,18.34,2.06,27.51,3,1.5.15,2.16.73,2.09,2.2C665.3-332.31,665.07-327,664.82-321.74Zm62.46-13.81c-6.19,17.77-12.43,35.52-18.58,53.3-.94,2.69-1.57,5.48-2.24,8.24a2.42,2.42,0,0,1-2.65,2.13c-4.34.07-8.67.17-13,.37-1.68.08-2.55-.54-2.66-2.21-.23-3.94-.61-7.88-.67-11.83-.12-6.72-.22-13.45,0-20.17.32-10.82.93-21.62,1.33-32.44.07-1.83,1-2.06,2.43-2.06,5.22,0,10.43,0,15.66,0,6.16.08,12.32.23,18.49.36.91,0,1.83.1,3.09.17C728-338.08,727.71-336.79,727.28-335.55Zm35.05-1.24a15.09,15.09,0,0,1-1.31,3c-1.92,4.57-4.08,9.06-5.66,13.74-2.75,8.15-5.22,16.4-7.63,24.65-2.1,7.2-3.92,14.49-6,21.7a3.13,3.13,0,0,1-2,2c-2.8.22-5.63.09-8.76.09a19.13,19.13,0,0,1,.39-2c4.36-12.95,8.48-26,13.2-38.83,2.67-7.24,6.32-14.12,9.53-21.17.24-.5.52-1,.73-1.48,1.31-3,3.29-4.21,6.45-3.51A2.15,2.15,0,0,1,762.33-336.79Zm32,5.29q-4.44,20.38-8.86,40.77c-.88,4-1.82,8-2.69,12-.5,2.32-1.72,3.46-4.27,3.51-2.91,0-5.81.54-8.94.86-1.32.09-2-.47-1.55-2.12,4-15.49,8.61-30.75,15.35-45.29,1.75-3.8,3.59-7.58,5.09-11.48,1.1-2.86,3-1.57,4.66-1.25S794.64-332.79,794.36-331.5Zm29.81,25.34c-3.07,6-6.06,12.12-8.89,18.29-1.44,3.15-2.38,6.52-3.67,9.74-.25.64-1.08,1-1.64,1.55a6.35,6.35,0,0,1-.36-2.1c2.32-12.41,4.58-24.84,7.12-37.22.8-3.93,2.35-7.72,3.56-11.57l1-.08C824.8-320.79,828.19-314.07,824.17-306.16Z" transform="translate(-133.08 558.82)"/><text class="cls-2" transform="translate(23.77 1407.86)">M<tspan class="cls-3" x="115.19" y="0">E</tspan><tspan class="cls-4" x="200.13" y="0">R</tspan><tspan class="cls-5" x="276.68" y="0">C</tspan><tspan class="cls-6" x="368.55" y="0">U</tspan><tspan class="cls-4" x="457.75" y="0">RI</tspan><tspan class="cls-7" x="603.73" y="0">A</tspan><tspan class="cls-8" x="708.46" y="0">L</tspan></text><path class="cls-1" d="M923,719.66c-.68-6.34-2.89-8.73-9-9.2-7.8-.59-15.62-1.08-23.43-1.4s-15.34-.36-23-.51q-14-.25-28-.48c-3.56-.05-4.1-.61-3.77-4.2a9.18,9.18,0,0,1,.18-1.17A75.89,75.89,0,0,0,837.09,677c-1.1-8.76-4.5-16.31-11.52-21.88a77.77,77.77,0,0,0-19.7-11.3c-3.13-1.24-6.16-2.7-9.26-4.06,2.28-4.19,1.83-5.4-2.54-6.64-4.19-1.18-8.44-2.13-12.64-3.28-3.35-.93-6.33-.74-9,1.86-1.34,1.3-5.21.4-5.17-1.07.08-3.42-2.2-4.56-4.82-5.24-3.59-.94-7.28-1.51-10.88-2.43-4.86-1.24-8.84.1-12.35,3.55a4.64,4.64,0,0,1-3,1.21c-15.18-.26-30.36-.68-45.55-.9-2.4,0-3.24-.89-3.72-3.15-2.58-12.23-7.21-23.59-14.8-33.62-4.3-5.68-8.77-11.22-13-16.94a63.52,63.52,0,0,0-38.06-25c-11.25-2.54-22.64-4.52-34-6.29-7.25-1.12-14.62-1.53-22-2s-14.85-.78-22.27-1c-11.46-.37-22.92-.57-34.37-1-15.17-.5-30.35,1.2-45.51-.45l-7.52-.79a40,40,0,0,1,7.07-3.71q25.1-11,50.17-22.09,20.73-9.15,41.43-18.39c3-1.35,6-2.86,8.91-4.48,2.75-1.53,3.26-2.9,2.31-5.16-2.23-5.32-13.52-20.86-15.12-23.42q-3.69-5.94-7-12.09c-1.06-1.94-16-22.27-19.55-20.84-10.19,4.1-20.39,8.22-30.53,12.45-3.27,1.37-59.06,27.71-85.62,40.48a50.18,50.18,0,0,1-21.47,4.95c-53.59.24-107.17,6-158.75,20.32-11.53,3.19-23.08,6.86-33.19,13.25a23.92,23.92,0,0,0,11.39,6.46l-59,18.66a3.84,3.84,0,0,0-1.83,1.16c-1.57,1.84-.27,3.67,1.1,4.89,6.48,5.74,16.11,5.65,24.73,4.91,27.91-2.4,55.39-8.3,82.78-14.18q-44.65,13.79-88.6,29.73c-10.61,3.85-21.35,7.87-30.38,14.68a2.68,2.68,0,0,0-1.08,1.77c-.24,1.73,1.41,2.46,2.82,2.87,25.85,7.55,53.41-.33,79.18-8.17l72.28-22a4.73,4.73,0,0,1,4.77,1.14c3.1,3.18-1.66,7.68-5.65,9.38q-65.44,27.84-128.85,60.17c-3.31,1.69-7,6.17-3.86,8.31a3.79,3.79,0,0,0,2.24.63,205.18,205.18,0,0,0,73.61-14.89l1.83,4.75,48.18-24.73c8.22-4.22,18.46-8.38,26.16-3.26L192.16,675.6a8.15,8.15,0,0,0-3.46,4.77c-2.8,11.22,26.12,4.14,30.55,2.87,12.54-3.59,24.28-9.55,35.49-16.12,18.54-10.88,36.31-23.59,56.64-30.56q-39.72,36.16-78.73,73.12a6.75,6.75,0,0,0-2.16,5.26c.4,6.1,8.55,5.81,13.86,3.94q8.37-2.94,16.62-6.23a152.8,152.8,0,0,0,20-9.29,92.31,92.31,0,0,0,25.48-21.74l4.27.94-25.27,25.35c-6.13,6.15-8.19,18.43,4.06,17,5.62-.68,10-3.5,14.51-6.56a15.74,15.74,0,0,0,.77,4.29c4.9-1,9.22-5.51,14.08-4.35,2.45.59,4.31,2.51,6.39,3.93,6.15,4.21,12.74,2.63,19.53,1.57,7.67-1.19,16.27.12,24.7.67,0,.28,0,.56,0,.85.07,2.57.23,5.13.54,7.68,0,.25.05.49.09.74.75,5.79,2.39,7,8.2,7.58,5.11.5,10.25.94,15.38,1,10.37,0,20.74-.21,31.1-.35l19.94-.29q21.13-.32,42.26-.63c12.58-.19,25.16-.33,37.75-.55,4.33-.07,8.63-.86,12.18-3.37a12.15,12.15,0,0,1,7.1-2.5c9.32-.29,18.63-1,28-1.17,8.92-.14,17.86.2,26.78.36,6.25.12,12.5.29,18.74.45,12.1.31,24.2.67,36.3,1,14.86.34,29.72.68,44.58.91,15.41.24,30.83.47,46.25.5,16.28,0,32.58-.21,48.87-.35,11.94-.11,23.88-.27,35.83-.41,4.75-.06,9.51,0,14.25-.23,14-.7,27.95-1.36,41.9-2.32,9.77-.67,19.53-1.63,29.26-2.78C921.34,729.66,923.73,726.24,923,719.66ZM458.67,576.17c19.71-2.4,39.31-5.64,59-8.09,11.61-1.44,23.29-2.37,35-3,15.08-.78,30.18-1.28,45.28-1.38s29.48,2.74,42.59,10.45c5.84,3.43,11.35,7.45,16.93,11.3a5.64,5.64,0,0,1,1.92,2.63c3.76,10.6,5.46,21.6,6.14,32.78,0,3.58-.12,3.67-3.8,3.35-31.23-2.76-62-8.41-92.89-13.73-20.65-3.57-41.38-6.72-62.09-10-14.85-2.31-29.72-4.48-44.59-6.64-10.24-1.49-20.51-2.89-30.77-4.26-5.24-.7-10.52-1.21-15.76-1.93-.61-.09-1.3-.9-1.63-1.54a4.6,4.6,0,0,1-.19-2.11c.07-3.65.7-4,4.27-4.33C431.6,578.65,445.19,577.81,458.67,576.17ZM593.43,709q-12-.13-24-.3c-.55,0-1.1-.09-1.66-.1-14.24-.18-28.48-.29-42.72-.55-13.59-.24-27.19-.61-40.79-1-11-.29-22-.73-32.95-.91-13.42-.21-26.83-.31-40.25-.43h-1l-4.8-.05h-.09c-16.95-1.36-29.58-16.7-33.08-32.84a37.79,37.79,0,0,1-.12-8.7c.16-1.72.42-3.44.73-5.15a62,62,0,0,1,17-32.55c2.81-2.88,5.54-5.84,8.26-8.81a3.54,3.54,0,0,1,4.46-1l4.73,2c7.18,3,14.38,5.93,21.54,8.95q14.53,6.13,29,12.46c1.22.53,80.74,34.23,101.87,46.89,11.39,6.83,22.58,14,33.87,21a11.11,11.11,0,0,0,1.13.48C593.82,708.78,593.63,709,593.43,709Zm71.39-45.5c0,.63-.18,1.26-.19,1.88-.18,12.75-.37,25.48-.48,38.23,0,2.68.26,5.36.4,8,.08,1.35-.33,1.93-1.92,1.85-8.6-.46-17.21-.8-25.82-1.14a11.08,11.08,0,0,1-6.61-2.69c-8.78-6.85-17.47-13.88-26.73-20-12.05-8-24.47-15.51-37-22.78s-25.22-14.22-38-20.94c-8.11-4.26-16.6-7.8-24.85-11.81-1.36-.67-2.39-2.07-3.5-3.21s-3.46-1.65-5.56-5.47l-3.37-3.65a23.19,23.19,0,0,1,2.76,0c11,1.67,22,3.38,33.05,5,18.38,2.77,36.74,5.58,55.14,8.22q26.89,3.86,53.82,7.38c9.15,1.19,18.34,2.06,27.51,3,1.5.16,2.16.73,2.09,2.21C665.3,652.88,665.07,658.17,664.82,663.46Zm62.46-13.81c-6.19,17.76-12.43,35.51-18.58,53.3-.94,2.68-1.57,5.47-2.24,8.24a2.42,2.42,0,0,1-2.65,2.12c-4.34.08-8.67.18-13,.38-1.68.08-2.55-.54-2.66-2.21-.23-3.94-.61-7.89-.67-11.83-.12-6.72-.22-13.45,0-20.18.32-10.81.93-21.62,1.33-32.44.07-1.82,1-2.06,2.43-2,5.22,0,10.43,0,15.66,0,6.16.07,12.32.22,18.49.35.91,0,1.83.1,3.09.18C728,647.12,727.71,648.4,727.28,649.65Zm35.05-1.24a15,15,0,0,1-1.31,3c-1.92,4.57-4.08,9.06-5.66,13.75-2.75,8.15-5.22,16.39-7.63,24.65-2.1,7.2-3.92,14.48-6,21.69a3.13,3.13,0,0,1-2,2c-2.8.23-5.63.09-8.76.09a18.83,18.83,0,0,1,.39-2c4.36-13,8.48-26,13.2-38.83,2.67-7.25,6.32-14.13,9.53-21.17.24-.5.52-1,.73-1.49,1.31-3,3.29-4.2,6.45-3.5A2.14,2.14,0,0,1,762.33,648.41Zm32,5.29q-4.44,20.37-8.86,40.76c-.88,4-1.82,8-2.69,12-.5,2.33-1.72,3.47-4.27,3.51-2.91,0-5.81.54-8.94.87-1.32.09-2-.47-1.55-2.13,4-15.48,8.61-30.74,15.35-45.29,1.75-3.79,3.59-7.57,5.09-11.47,1.1-2.86,3-1.57,4.66-1.26S794.64,652.4,794.36,653.7ZM824.17,679c-3.07,6-6.06,12.12-8.89,18.28-1.44,3.15-2.38,6.53-3.67,9.75-.25.63-1.08,1-1.64,1.55a6.4,6.4,0,0,1-.36-2.1c2.32-12.42,4.58-24.85,7.12-37.22.8-3.94,2.35-7.72,3.56-11.57l1-.08C824.8,664.4,828.19,671.13,824.17,679Z" transform="translate(-133.08 558.82)"/><text class="cls-9" transform="translate(23.77 1470.45)">H<tspan class="cls-10" x="45.92" y="0">E</tspan><tspan x="82.56" y="0">A</tspan><tspan class="cls-11" x="123.42" y="0">L</tspan><tspan class="cls-12" x="151.31" y="0">T</tspan><tspan x="191.24" y="0">H</tspan><tspan class="cls-13" x="237.16" y="0"> </tspan><tspan x="254.46" y="0">AND F</tspan><tspan class="cls-14" x="441.47" y="0">IT</tspan><tspan x="497.98" y="0">N</tspan><tspan class="cls-15" x="543.9" y="0">E</tspan><tspan x="579.96" y="0">SS INN</tspan></text></svg>