<svg xmlns="http://www.w3.org/2000/svg" width="159.677" height="159.677" viewBox="0 0 159.677 159.677">
  <path id="Icon" d="M34.936,72.194c12.419,24.839,33.71,45.242,58.548,58.548L113,111.226c2.661-2.661,6.21-3.548,8.871-1.774a92.792,92.792,0,0,0,31.936,5.323,8.889,8.889,0,0,1,8.871,8.871v30.161c0,4.436-4.435,8.871-8.871,8.871A150.68,150.68,0,0,1,3,11.871C3,7.435,7.435,3,11.871,3H42.919a8.889,8.889,0,0,1,8.871,8.871,100.464,100.464,0,0,0,5.323,31.935c.887,2.661,0,6.21-1.774,8.871Z" transform="translate(-3 -3)" fill="#ff9800"/>
</svg>
